# xmcd
#
# Track frame offsets: 
#        150
#        16318
#        40361
#        61606
#        86724
#        113277
#        153328
#        193366
#        221557
#        253461
#        272203
#        304945
#
# Disc length: 4316 seconds
#
# Revision: 0
# Processed by: cddbd v1.5.2PL0 Copyright (c) Steve Scherf et al.
# Submitted via: ExactAudioCopy v0.95b4
#
DISCID=a810da0c
DTITLE=Eric Clapton - A Stromy Monday In Cologne 2001 - CD1
DYEAR=2001
DGENRE=Blues
TTITLE0=Key To The Highway
TTITLE1=Reptile
TTITLE2=Tears In Heaven
TTITLE3=Bell Bottom Blues
TTITLE4=Change The World
TTITLE5=My Father's Eyes
TTITLE6=River of Tears
TTITLE7=Going Down Slow
TTITLE8=She's Gone
TTITLE9=Got You On My Mind
TTITLE10=Don't Let Me Be Lonely Tonight
TTITLE11=Travelling Light
EXTD=
EXTT0=
EXTT1=
EXTT2=
EXTT3=
EXTT4=
EXTT5=
EXTT6=
EXTT7=
EXTT8=
EXTT9=
EXTT10=
EXTT11=
PLAYORDER=
